<svg height="368pt" viewBox="0 0 368 368" width="368pt" xmlns="http://www.w3.org/2000/svg"><path d="m344 8h-320c-8.800781 0-16 7.199219-16 16v320c0 8.800781 7.199219 16 16 16h320c8.800781 0 16-7.199219 16-16v-320c0-8.800781-7.199219-16-16-16zm-48 304h-64l-96-153.601562v153.601562h-64v-256h64l96 153.601562v-153.601562h64zm0 0" fill="#cce4ff"/><g fill="#007aff"><path d="m344 0h-320c-13.230469 0-24 10.769531-24 24v320c0 13.230469 10.769531 24 24 24h320c13.230469 0 24-10.769531 24-24v-320c0-13.230469-10.769531-24-24-24zm8 344c0 4.414062-3.585938 8-8 8h-320c-4.414062 0-8-3.585938-8-8v-320c0-4.414062 3.585938-8 8-8h320c4.414062 0 8 3.585938 8 8zm0 0"/><path d="m296 48h-64c-4.425781 0-8 3.574219-8 8v125.710938l-81.214844-129.949219c-1.464844-2.335938-4.023437-3.761719-6.785156-3.761719h-64c-.207031 0-.382812.105469-.59375.121094-.535156.039062-1.078125.039062-1.605469.191406-.175781.046875-.3125.167969-.480469.230469-.359374.128906-.679687.304687-1.007812.480469-.527344.28125-1.007812.601562-1.457031.984374-.28125.238282-.535157.472657-.777344.746094-.414063.46875-.742187.988282-1.039063 1.542969-.152343.289063-.328124.535156-.445312.847656-.363281.894531-.59375 1.847657-.59375 2.855469v256c0 4.425781 3.574219 8 8 8h64c4.425781 0 8-3.574219 8-8v-125.703125l81.214844 129.941406c1.464844 2.335938 4.023437 3.761719 6.785156 3.761719h64c.929688 0 1.839844-.222656 2.734375-.550781.265625-.097657.511719-.21875.761719-.335938.238281-.121093.503906-.175781.734375-.328125.25-.160156.394531-.410156.625-.585937.441406-.34375.839843-.703125 1.199219-1.136719.328124-.390625.585937-.789062.832031-1.230469.25-.449219.457031-.894531.617187-1.382812.167969-.519531.257813-1.035157.320313-1.585938.03125-.296875.175781-.558593.175781-.863281v-256c0-4.425781-3.574219-8-8-8zm-168 256h-48v-220.113281l48 76.808593zm108.441406 0-93.585937-149.71875c-.046875-.082031-.09375-.160156-.144531-.226562l-56.277344-90.054688h45.125l150.007812 240zm51.558594-19.894531-48-76.800781v-143.304688h48zm0 0"/></g></svg>